<svg width="48" height="48" viewBox="0 0 20 20" xmlns="http://www.w3.org/2000/svg">
  <path d="M3.25 7.49c.04.36.01 1.86-1.4 3.91-1.46 2.27.84 6.05 5.5 5.09a5.4 5.4 0 0 0 1.83.4c.71.01 1.83-.03 2.85-.39 4.65.96 6.94-2.83 5.48-5.1-1.4-2.04-1.44-3.54-1.4-3.9H3.25Z" fill="#DB343D"/>
  <path d="M10.18 16.87c-4.54-.11-5.37-2.17-4.11-2.6.73-.25 1.69-.67 1.69-.67-.49-2.32.31-5.28 2.43-5.27 2.12 0 2.9 3.05 2.42 5.32 0 0 .97.35 1.68.62 1.18.46.43 2.49-4.11 2.6Z" fill="#2075A9"/>
  <path d="M8.47 15.23c-1.2-3.26-.15-6.4 1.71-6.4 1.77.01 2.97 3.02 1.72 6.41 0 0-.59-.13-1.78-.13-.89 0-1.65.12-1.65.12Z" fill="#F9D93A"/>
  <circle cx="10.18" cy="15.98" r="3.27" fill="#E89133"/>
  <ellipse cx="10.18" cy="15.98" rx="3.27" ry="0.92" fill="#E89133"/>
  <path d="M10.17 7.42c-2.37 0-5.63.2-7.72.36-1.6.12-2.85-1.08-1.78-2.22C2.9 3.15 8.5.09 10.19.09c1.79 0 7.24 3.06 9.51 5.48 1.07 1.14-.01 2.22-1.62 2.22-1.8 0-5.54-.36-7.9-.36Z" fill="#E89133"/>
</svg>
