<svg width="2500" height="789" viewBox="0 0 95 30" fill="none" xmlns="http://www.w3.org/2000/svg"><path d="M5.38.86H1.45a.83.83 0 0 0-.83.83v3.34c0 .458.372.83.83.83h3.93a.83.83 0 0 0 .83-.83V1.69a.83.83 0 0 0-.83-.83" fill="#CA0080"/><path d="M29.4.86h-3.39c-.46 0-.83.38-.83.83v13.55c0 .28-.36.38-.49.13L16.81 1.22a.71.71 0 0 0-.64-.36h-5.64c-.46 0-.83.38-.83.83v21.65c0 .46.38.83.83.83h3.39c.46 0 .83-.38.83-.83V9.38c0-.28.36-.38.49-.13l8.1 14.57c.13.23.36.36.64.36h5.39c.46 0 .83-.38.83-.83V1.68c0-.46-.38-.83-.83-.83h.03zm8.29 12.55c.49-2.19 1.77-3.16 3.7-3.16 1.72 0 3.2 1 3.41 3.16zm12.1 2.31c0-6.1-3.97-9.13-8.33-9.13-5.67 0-8.9 3.93-8.9 9.23 0 6.03 4.06 8.9 8.77 8.9s7.46-2.43 8.2-5.59c.1-.41-.13-.77-.74-.77h-2.67c-.3 0-.57.16-.7.46-.67 1.46-1.74 2.23-3.8 2.23-2.33 0-3.9-1.46-4.13-4.43h11.46c.49 0 .83-.36.83-.9zm43.58-8.7h-3.4a.83.83 0 0 0-.83.83v15.5c0 .458.372.83.83.83h3.4a.83.83 0 0 0 .83-.83V7.85a.83.83 0 0 0-.83-.83M60.36 20.85c-2.23 0-3.8-1.64-3.8-5.16s1.57-5.36 3.8-5.36 3.8 1.7 3.8 5.36-1.57 5.16-3.8 5.16m7.72-13.83h-3.39c-.46 0-.83.38-.83.83v.84c-1.01-1.19-2.68-2.01-4.87-2.01-4.9 0-7.49 4.43-7.49 9.13 0 4.1 2.13 8.7 7.39 8.7 1.88 0 3.88-.9 4.97-2.17v6.67c0 .46.38.83.83.83h3.39c.46 0 .83-.38.83-.83V7.88c0-.46-.38-.83-.83-.83zm18.06 0h-3.39c-.46 0-.83.38-.83.83v8.77c0 2.83-1.26 3.65-2.87 3.65s-2.87-.83-2.87-3.65V7.85c0-.46-.38-.83-.83-.83h-3.39c-.46 0-.83.38-.83.83v9.13c0 5.43 3 7.62 7.93 7.62s7.93-2.2 7.93-7.62V7.85c0-.46-.38-.83-.83-.83h-.03z" fill="#200020"/></svg>
